<svg width="320" height="192" viewBox="0 0 320 192" xmlns="http://www.w3.org/2000/svg">
  <defs>
    <linearGradient id="frontendGradient" x1="0%" y1="0%" x2="100%" y2="100%">
      <stop offset="0%" style="stop-color:#3B82F6;stop-opacity:1" />
      <stop offset="100%" style="stop-color:#1E40AF;stop-opacity:1" />
    </linearGradient>
  </defs>
  
  <!-- Background -->
  <rect width="320" height="192" fill="url(#frontendGradient)"/>
  
  <!-- Code brackets -->
  <g transform="translate(40, 40)">
    <path d="M20 20 L5 35 L20 50" stroke="#60A5FA" stroke-width="3" fill="none" stroke-linecap="round"/>
    <path d="M40 20 L55 35 L40 50" stroke="#60A5FA" stroke-width="3" fill="none" stroke-linecap="round"/>
  </g>
  
  <!-- Browser window -->
  <g transform="translate(80, 30)">
    <rect x="0" y="0" width="160" height="100" rx="8" fill="#F8FAFC" stroke="#E2E8F0" stroke-width="2"/>
    <rect x="0" y="0" width="160" height="20" rx="8" fill="#E2E8F0"/>
    <circle cx="12" cy="10" r="3" fill="#EF4444"/>
    <circle cx="24" cy="10" r="3" fill="#F59E0B"/>
    <circle cx="36" cy="10" r="3" fill="#10B981"/>
    
    <!-- Content lines -->
    <rect x="12" y="35" width="80" height="4" rx="2" fill="#3B82F6"/>
    <rect x="12" y="45" width="120" height="4" rx="2" fill="#6B7280"/>
    <rect x="12" y="55" width="60" height="4" rx="2" fill="#6B7280"/>
    <rect x="12" y="70" width="100" height="8" rx="4" fill="#10B981"/>
  </g>
  
  <!-- React logo -->
  <g transform="translate(260, 140)">
    <circle cx="20" cy="20" r="8" fill="none" stroke="#61DAFB" stroke-width="2"/>
    <ellipse cx="20" cy="20" rx="25" ry="10" fill="none" stroke="#61DAFB" stroke-width="2" transform="rotate(60 20 20)"/>
    <ellipse cx="20" cy="20" rx="25" ry="10" fill="none" stroke="#61DAFB" stroke-width="2" transform="rotate(-60 20 20)"/>
    <circle cx="20" cy="20" r="3" fill="#61DAFB"/>
  </g>
  
  <!-- Title -->
  <text x="160" y="170" text-anchor="middle" fill="white" font-family="Arial, sans-serif" font-size="16" font-weight="bold">Frontend Development</text>
</svg>